<svg xmlns="http://www.w3.org/2000/svg" width="27.662" height="27.662" viewBox="0 0 27.662 27.662">
  <path id="Icon_ionic-md-happy" data-name="Icon ionic-md-happy" d="M17.206,3.375A13.831,13.831,0,1,0,31.037,17.206,13.827,13.827,0,0,0,17.206,3.375Zm0,24.9A11.065,11.065,0,1,1,28.271,17.206,11.1,11.1,0,0,1,17.206,28.271Zm4.841-12.448a2.075,2.075,0,1,0-2.075-2.075A2.037,2.037,0,0,0,22.047,15.823Zm-9.682,0a2.075,2.075,0,1,0-2.075-2.075A2.037,2.037,0,0,0,12.365,15.823Zm4.841,8.99a7.536,7.536,0,0,0,7.054-4.841H10.152A7.536,7.536,0,0,0,17.206,24.813Z" transform="translate(-3.375 -3.375)" fill="#fff"/>
</svg>
