<?xml version="1.0" encoding="utf-8"?>
<!-- Generator: Adobe Illustrator 26.4.1, SVG Export Plug-In . SVG Version: 6.00 Build 0)  -->
<svg version="1.1" id="Layer_1" xmlns="http://www.w3.org/2000/svg" xmlns:xlink="http://www.w3.org/1999/xlink" x="0px" y="0px"
	 viewBox="0 0 608 607.32" style="enable-background:new 0 0 608 607.32;" xml:space="preserve">
<style type="text/css">
	.st0{fill:url(#SVGID_1_);}
	.st1{fill:url(#SVGID_00000065779806355033106700000007085184202754282431_);}
	.st2{fill:url(#SVGID_00000167357954676335434460000000188688416564846746_);}
	.st3{fill:url(#SVGID_00000061449172519619481390000000281570179403891350_);}
	.st4{fill:url(#SVGID_00000142157835124385580940000008005087264291795888_);}
	.st5{fill:url(#SVGID_00000062888734801230052620000007195035269089583293_);}
	.st6{fill:url(#SVGID_00000088097806818461505990000005170413958558636174_);}
	.st7{fill:url(#SVGID_00000010312731751305791450000000353858855283678876_);}
	.st8{fill:url(#SVGID_00000034072408114106483750000004931247615534145967_);}
	.st9{fill:url(#SVGID_00000105417218497370148460000001748074470304925361_);}
	.st10{fill:url(#SVGID_00000105393589510493107200000004898391539112540586_);}
	.st11{fill:url(#SVGID_00000132777872008061550460000004054119101696408987_);}
	.st12{fill:url(#SVGID_00000164474698625212102250000009239629358317214887_);}
	.st13{fill:url(#SVGID_00000170964062117187212120000013837444957103720320_);}
	.st14{fill:url(#SVGID_00000163056694033229659240000000859375373020812967_);}
	.st15{fill:url(#SVGID_00000066491966370017121820000003325734071284852117_);}
	.st16{fill:url(#SVGID_00000055694684097667305310000007694770754156272011_);}
	.st17{fill:url(#SVGID_00000147198497582475108470000008374156010883990419_);}
	.st18{fill:url(#SVGID_00000100372914261505459930000018012101709225260972_);}
	.st19{fill:url(#SVGID_00000173152524634653961700000016898432897834107061_);}
	.st20{fill:url(#SVGID_00000010998772337926109750000002277834607322040750_);}
	.st21{fill:url(#SVGID_00000008829713455279434300000011099982377302480258_);}
	.st22{fill:url(#SVGID_00000150093398129064228680000010793539268940243622_);}
	.st23{fill:url(#SVGID_00000028301961090961177930000015513057859753036975_);}
	.st24{fill:url(#SVGID_00000165942466948613978520000004012928351175254956_);}
	.st25{fill:url(#SVGID_00000169542780726265967270000006754790440771947701_);}
	.st26{fill:url(#SVGID_00000095304336232432033480000002267170836740886946_);}
	.st27{fill:url(#SVGID_00000108284065781158032210000000676716188170988688_);}
	.st28{fill:url(#SVGID_00000022558598423925123390000005176615290671108254_);}
	.st29{fill:url(#SVGID_00000064350938702872977040000005706097756590226560_);}
	.st30{fill:url(#SVGID_00000003812652365947259210000001205325192788295327_);}
	.st31{fill:url(#SVGID_00000124874921027462028790000004077354933426917288_);}
	.st32{fill:url(#SVGID_00000029758823802533248520000003122334300693598126_);}
	.st33{fill:url(#SVGID_00000174596027986274596790000008213731498465232295_);}
	.st34{fill:url(#SVGID_00000121279270251028813840000000428802214780004246_);}
	.st35{fill:url(#SVGID_00000173138034306510260780000000402416000971056050_);}
	.st36{fill:url(#SVGID_00000104703318009616863030000009066265752828484769_);}
	.st37{fill:url(#SVGID_00000114754486321841944930000000140754509162300820_);}
	.st38{fill:url(#SVGID_00000067923864846231247200000009722053649372097453_);}
	.st39{fill:url(#SVGID_00000066510989981701941060000008242878702560550561_);}
	.st40{fill:url(#SVGID_00000018208052948110608450000014026537491110210193_);}
	.st41{fill:url(#SVGID_00000165947465757192530400000003193704745650149810_);}
	.st42{fill:url(#SVGID_00000080920802038301281250000017817137230504416688_);}
	.st43{fill:url(#SVGID_00000106849860949957703790000018152452003924426137_);}
	.st44{fill:url(#SVGID_00000137824674624519059510000011978410474675278253_);}
	.st45{fill:url(#SVGID_00000170984133399890708290000002358235567039336582_);}
	.st46{fill:#0C509F;}
	.st47{fill:url(#SVGID_00000160171575085967770390000001201294810022794884_);}
	.st48{fill:url(#SVGID_00000149363882905518226120000017343163446842591663_);}
	.st49{fill:url(#SVGID_00000083781962788147779210000007249468268296525497_);}
	.st50{fill:url(#SVGID_00000088104010568756129710000014511816520678151821_);}
	.st51{fill:url(#SVGID_00000119119768308294552230000009224621569896080520_);}
	.st52{fill:url(#SVGID_00000078758560712836882860000012013475829895427728_);}
	.st53{fill:url(#SVGID_00000028294642561775375920000015994060099236887471_);}
	.st54{fill:url(#SVGID_00000154412117889423471210000007506154126282461090_);}
	.st55{fill:url(#SVGID_00000173842977589031733590000013071471479820508093_);}
	.st56{fill:url(#SVGID_00000006672855507924245140000007314232475277659528_);}
	.st57{fill:url(#SVGID_00000018225912183704324790000011987735290732577171_);}
	.st58{fill:url(#SVGID_00000129208085683252184960000017801803182298379651_);}
	.st59{fill:#0E5158;}
	.st60{fill:#4CBA7F;}
	.st61{fill:#272828;}
</style>
<g>
	<linearGradient id="SVGID_1_" gradientUnits="userSpaceOnUse" x1="21.7604" y1="296.6019" x2="500.8522" y2="296.6019">
		<stop  offset="0" style="stop-color:#06373A"/>
		<stop  offset="0.22" style="stop-color:#134F47"/>
		<stop  offset="0.682" style="stop-color:#348C67"/>
		<stop  offset="1" style="stop-color:#4CBA7F"/>
	</linearGradient>
	<path class="st0" d="M21.76,283.58c2.9-12.27,5.51-24.62,8.8-36.79c2.2-8.12,5.21-16.04,8.14-23.95c2.33-6.29,5.5-7.73,12.09-6.01
		c8.34,2.18,16.62,4.62,25.01,6.58c1.58,0.37,4.5-0.45,5.22-1.66c5.88-9.93,11.38-20.09,17.28-30.69
		c-6.41-6.4-13.15-13.12-19.87-19.87c-5.95-5.98-6.15-8.67-1.07-15.08c13.08-16.48,27.86-31.26,44.46-44.19
		c5.35-4.17,8.63-4.03,13.46,0.78c7.02,6.98,13.92,14.08,20.72,20.98c11.3-6.53,22.06-12.75,33.35-19.28
		c-2.37-8.83-4.84-17.99-7.29-27.15c-2.2-8.22-0.9-10.86,6.98-13.94c19.56-7.64,39.66-13.25,60.51-15.98
		c6.65-0.87,9.07,0.72,10.88,7.13c2.4,8.47,4.48,17.04,7.06,25.45c0.46,1.5,2.64,3.49,4.07,3.52c11.36,0.29,22.73,0.16,34.78,0.16
		c2.47-9.03,4.98-18.15,7.47-27.28c2.33-8.56,4.23-10.03,12.81-8.79c20.98,3.02,41.31,8.52,60.94,16.52
		c5.52,2.25,7.09,5.45,5.57,11.41c-2.18,8.53-4.7,16.98-6.7,25.55c-0.36,1.54,0.53,4.4,1.75,5.12c9.92,5.89,20.05,11.42,30.64,17.35
		c6.53-6.59,13.34-13.53,20.23-20.4c5.29-5.27,8.49-5.46,14.33-0.88c16.71,13.11,31.54,28.09,44.63,44.79
		c3.94,5.03,3.86,8.66-0.55,13.1c-15.68,15.77-31.41,31.48-47.16,47.17c-5.85,5.82-10.33,5.33-15.32-1.46
		c-29.24-39.84-67.95-64.75-116.68-73.66c-91.38-16.69-181.95,39.97-207.11,129.43c-20.71,73.67,5.55,150.77,66.93,196.5
		c1.62,1.21,3.3,2.34,4.82,3.67c4.13,3.6,4.64,8.09,0.77,12.01c-16.39,16.61-32.92,33.08-49.46,49.54
		c-3.5,3.48-7.44,3.71-11.39,0.62c-17.61-13.75-33.28-29.44-46.97-47.1c-3.28-4.23-2.45-8.18,1.2-11.78
		c7.18-7.09,14.35-14.19,21.49-21.25c-6.45-11.16-12.65-21.91-19.23-33.3c-8.69,2.33-17.83,4.79-26.97,7.23
		c-8.57,2.29-10.9,1.08-14.22-7.26c-7.22-18.14-12.34-36.85-15.37-56.15c-0.13-0.84-0.66-1.63-1-2.44c0-2.57,0-5.15,0-7.72
		c3.42-1.84,6.67-4.25,10.31-5.4c8.64-2.73,17.47-4.85,26.1-7.19c0-13.04,0-25.45,0-38.2c-9.05-2.47-18.11-4.64-26.96-7.5
		c-3.41-1.1-6.32-3.74-9.46-5.68C21.76,287.99,21.76,285.78,21.76,283.58z M90.78,161.57c8.53,8.42,15.36,15.09,22.11,21.84
		c5.06,5.07,4.93,7.81,1.21,14.02c-7.53,12.57-14.81,25.3-21.93,38.11c-3.15,5.66-5.66,7.17-12.01,5.51
		c-8.34-2.18-16.62-4.59-25.01-6.57c-1.35-0.32-4.21,0.79-4.51,1.8c-4.51,14.84-8.7,29.77-13.1,45.15
		c10.84,2.89,20.21,5.34,29.56,7.89c6.38,1.74,7.76,4.05,7.7,10.72c-0.14,14.85-0.18,29.71-0.03,44.56
		c0.07,7.13-1.01,9.06-7.96,11.01c-9.32,2.61-18.68,5.11-29.08,7.94c4.41,16.28,8.69,32.09,13.05,48.22
		c10.27-2.77,19.26-5.21,28.27-7.62c7.68-2.05,9.77-0.77,13.57,6.16c6.7,12.21,13.56,24.35,20.84,36.22
		c4.67,7.62,4.86,9.6-1.67,16.13c-6.47,6.47-12.96,12.92-20.14,20.07c12.07,12.03,23.69,23.61,35.04,34.93
		c13.53-13.52,26.11-26.1,38.94-38.93c-44.75-35.98-71.55-82.44-76.38-140.2c-4.84-57.91,12.7-108.91,52.17-151.64
		c35.45-38.37,79.82-59.78,131.95-62.83c69.84-4.08,126.41,23.09,170.23,76.35c12.84-12.82,25.42-25.39,38.85-38.79
		c-11.34-11.35-22.94-22.96-34.85-34.88c-7.64,7.68-14.33,14.48-21.1,21.21c-5.28,5.24-7.7,5.1-13.94,1.29
		c-11.72-7.18-23.51-14.28-35.62-20.77c-9.27-4.97-10.14-5.93-7.37-16.26c2.27-8.44,4.51-16.89,7.06-26.47
		c-16.46-4.35-32.24-8.52-48.28-12.76c-2.84,10.55-5.26,19.58-7.7,28.59c-1.97,7.28-4.53,8.52-11.83,8.31
		c-14.3-0.41-28.62-0.42-42.92-0.06c-7.22,0.18-9.71-0.89-11.62-7.76c-2.59-9.32-5.1-18.66-7.98-29.22
		c-16.31,4.4-32.14,8.67-48.22,13.01c2.69,10.06,5.06,18.9,7.43,27.75c2.25,8.41,1.06,10.3-6.47,14.39
		c-12.07,6.56-24.04,13.35-35.74,20.55c-7.67,4.72-9.55,4.95-16.1-1.58c-6.46-6.45-12.88-12.95-20.97-21.09
		C114.23,137.96,102.76,149.51,90.78,161.57z"/>
	
		<linearGradient id="SVGID_00000098196667904413366360000018304430140438918286_" gradientUnits="userSpaceOnUse" x1="113.9012" y1="349.7887" x2="586.2396" y2="349.7887">
		<stop  offset="0" style="stop-color:#06373A"/>
		<stop  offset="0.22" style="stop-color:#134F47"/>
		<stop  offset="0.682" style="stop-color:#348C67"/>
		<stop  offset="1" style="stop-color:#4CBA7F"/>
	</linearGradient>
	<path style="fill:url(#SVGID_00000098196667904413366360000018304430140438918286_);" d="M447.21,550.2
		c-48.65-1.33-86.7-19.94-115.21-57.26c-2.57-3.37-4.74-3.95-8.59-3.13c-98.47,21.06-192.56-43.95-207.62-143.37
		c-13.74-90.71,48.92-178.29,138.99-194.25c84.28-14.94,164.51,30.93,193.73,110.9c1.26,3.44,2.81,4.8,6.58,5.02
		c67.44,3.93,123.64,58.08,130.41,125.46c7.5,74.7-42.39,141.16-116.01,154.31C461.55,549.29,453.42,549.57,447.21,550.2z
		 M164.14,313.63c3.72,0,6.64-0.06,9.56,0.01c5.98,0.16,9.36,2.95,9.48,7.73c0.12,4.98-3.35,7.96-9.64,8.13
		c-3.04,0.08-6.08,0.01-9.11,0.01c0.01,14.37,6.45,37.49,12.69,46.03c2.51-1.42,5.04-2.89,7.6-4.3c5.48-3.03,9.97-2.26,12.42,2.1
		c2.43,4.33,0.78,8.39-4.77,11.68c-2.49,1.48-5.01,2.92-7.91,4.61c9.42,13.66,20.28,24.99,34.07,33.78
		c2.05-3.47,3.69-6.55,5.61-9.44c2.68-4.04,7.33-5.22,10.95-2.75c3.95,2.68,4.76,6.37,2.58,10.58c-1.66,3.2-3.53,6.29-5.48,9.74
		c14.86,7.16,29.82,11.47,46.49,12.22c0-3.87-0.12-7.31,0.03-10.75c0.21-4.94,3.42-8.24,7.79-8.22c4.39,0.02,7.53,3.28,7.73,8.27
		c0.14,3.43,0.03,6.87,0.03,10.91c4.9-0.57,9.01-1.05,12.75-1.48c-11.85-79.98,18.94-135.64,92.52-168.46
		c-0.83-1.82-1.86-4.07-3.08-6.74c-3.03,1.72-5.68,3.27-8.38,4.75c-5.21,2.85-9.55,2.12-12.06-1.98c-2.6-4.24-1-8.52,4.39-11.78
		c2.61-1.58,5.23-3.15,8.08-4.86c-9.29-13.67-20.27-24.75-33.79-33.76c-1.11,1.75-2,3.11-2.84,4.49c-0.85,1.41-1.6,2.89-2.49,4.28
		c-2.9,4.53-7.24,5.95-11.19,3.71c-3.96-2.25-4.95-6.71-2.45-11.47c1.58-3,3.29-5.93,5.07-9.13c-15-7.09-29.89-11.55-46.19-12.06
		c-0.12,2.22-0.23,3.84-0.27,5.46c-0.04,1.65,0.04,3.31-0.03,4.96c-0.23,5.02-3.21,8.35-7.54,8.51c-4.52,0.16-7.9-3.33-8.08-8.54
		c-0.12-3.39-0.02-6.8-0.02-10.53c-16.83,0.92-31.81,5.09-46.44,12.3c1.97,3.47,3.79,6.42,5.36,9.49c2.26,4.43,1.11,8.8-2.71,10.99
		c-3.8,2.18-8.22,0.97-10.91-3.18c-1.88-2.9-3.52-5.97-5.5-9.35c-13.66,9.1-24.76,20.22-33.91,33.89c3.46,2.06,6.51,3.72,9.39,5.64
		c4.29,2.84,5.39,7.03,3.07,10.88c-2.31,3.83-6.52,4.87-11.06,2.55c-3.08-1.57-6.05-3.36-9.37-5.23
		C169.24,281.9,165.35,296.98,164.14,313.63z M433.14,267.6c-25.74-73.66-110.39-123.21-197.05-94.24
		c-84.48,28.24-128.22,122.47-95.28,205.48c33.18,83.61,120.15,110.89,178.85,95.07c-1.85-4.2-3.93-8.28-5.43-12.57
		c-1.08-3.09-2.63-3.39-5.7-3.24c-12.43,0.61-25.01,2.02-37.3,0.8c-78.77-7.79-135.03-82.7-121.3-160.8
		c10.34-58.84,56.14-103.82,115.54-113.49c57.11-9.3,115.5,19.99,143.19,71.83c2.47,4.62,3.9,11.54,7.68,13.24
		c4.24,1.9,10.6-0.92,16.04-1.7C432.55,267.95,432.71,267.81,433.14,267.6z M570.65,408.76c0.01-69.02-55.96-125.1-125.06-125.3
		c-69.36-0.2-125.69,55.75-125.87,125.03c-0.18,69.21,55.97,125.47,125.32,125.57C514.37,534.15,570.64,478.02,570.65,408.76z"/>
	
		<linearGradient id="SVGID_00000147929997534250260820000009890341752986677926_" gradientUnits="userSpaceOnUse" x1="208.3562" y1="298.2985" x2="321.1313" y2="298.2985">
		<stop  offset="0" style="stop-color:#06373A"/>
		<stop  offset="0.22" style="stop-color:#134F47"/>
		<stop  offset="0.682" style="stop-color:#348C67"/>
		<stop  offset="1" style="stop-color:#4CBA7F"/>
	</linearGradient>
	<path style="fill:url(#SVGID_00000147929997534250260820000009890341752986677926_);" d="M283.62,310.68
		c6.97-12.05,13.67-23.63,20.37-35.21c0.83-1.43,1.56-2.93,2.5-4.27c2.66-3.78,6.1-5.25,10.47-3.03c4.01,2.04,5.33,6.42,3.07,10.88
		c-2.07,4.09-4.54,7.97-6.83,11.95c-6.33,10.97-12.61,21.96-19.01,32.89c-3.56,6.08-7.17,7.07-13.26,3.57
		c-22.28-12.79-44.52-25.65-66.76-38.53c-5.53-3.2-7.16-7.4-4.73-11.68c2.5-4.42,7.12-5.09,12.93-1.75
		c18.45,10.62,36.88,21.28,55.32,31.92C279.43,308.42,281.2,309.35,283.62,310.68z"/>
	
		<linearGradient id="SVGID_00000090258016327187028380000015986246379471716526_" gradientUnits="userSpaceOnUse" x1="335.241" y1="408.7579" x2="555.1047" y2="408.7579">
		<stop  offset="0" style="stop-color:#06373A"/>
		<stop  offset="0.22" style="stop-color:#134F47"/>
		<stop  offset="0.682" style="stop-color:#348C67"/>
		<stop  offset="1" style="stop-color:#4CBA7F"/>
	</linearGradient>
	<path style="fill:url(#SVGID_00000090258016327187028380000015986246379471716526_);" d="M555.1,408.96
		c-0.22,60.88-49.5,109.8-110.39,109.6c-60.51-0.2-109.62-49.55-109.47-110c0.15-60.76,49.54-109.79,110.42-109.61
		C506.14,299.12,555.32,348.56,555.1,408.96z M539.15,408.69c-0.03-51.91-42.09-94.04-93.9-94.06c-51.84-0.02-93.9,42-94.01,93.93
		c-0.11,52.18,42.07,94.44,94.16,94.34C497.21,502.8,539.18,460.63,539.15,408.69z"/>
	
		<linearGradient id="SVGID_00000147912213098858922250000005992252513613975179_" gradientUnits="userSpaceOnUse" x1="370.1919" y1="408.8352" x2="520.1802" y2="408.8352">
		<stop  offset="0" style="stop-color:#06373A"/>
		<stop  offset="0.22" style="stop-color:#134F47"/>
		<stop  offset="0.682" style="stop-color:#348C67"/>
		<stop  offset="1" style="stop-color:#4CBA7F"/>
	</linearGradient>
	<path style="fill:url(#SVGID_00000147912213098858922250000005992252513613975179_);" d="M426.18,418.82
		c4.24-4.5,8.17-8.86,12.3-13.01c17.11-17.19,34.28-34.34,51.46-51.47c5.41-5.4,9.23-5.43,14.55-0.21c4.2,4.12,8.4,8.24,12.46,12.49
		c4.22,4.42,4.37,8.24,0.13,12.5c-28.4,28.52-56.86,56.98-85.38,85.38c-3.93,3.92-8.15,3.88-12.15-0.07
		c-15.55-15.38-31.02-30.84-46.4-46.38c-3.99-4.04-3.88-8.01,0.03-12.13c4.3-4.53,8.76-8.92,13.25-13.26
		c4.78-4.62,8.52-4.62,13.33,0.1c7.35,7.21,14.57,14.54,21.86,21.8C422.89,415.83,424.25,417.02,426.18,418.82z M390.32,411.36
		c12.33,12.39,24.1,24.21,35.12,35.28c24.58-24.58,49.48-49.48,74.13-74.14c-0.36-0.68-1.04-1.95-2.49-4.65
		c-2,2.78-2.99,4.61-4.4,6.03c-19.58,19.67-39.21,39.28-58.84,58.89c-6.61,6.61-9.77,6.57-16.49-0.14
		c-7.55-7.53-15.08-15.07-22.64-22.58c-0.5-0.5-1.15-0.85-1.93-1.41C391.75,409.79,390.8,410.83,390.32,411.36z"/>
</g>
</svg>
