<?xml version="1.0" encoding="utf-8"?>
<!-- Generator: Adobe Illustrator 26.4.1, SVG Export Plug-In . SVG Version: 6.00 Build 0)  -->
<svg version="1.1" id="Layer_1" xmlns="http://www.w3.org/2000/svg" xmlns:xlink="http://www.w3.org/1999/xlink" x="0px" y="0px"
	 viewBox="0 0 608 607.32" style="enable-background:new 0 0 608 607.32;" xml:space="preserve">
<style type="text/css">
	.st0{fill:url(#SVGID_1_);}
	.st1{fill:url(#SVGID_00000052796407688211250100000010320505415926985091_);}
	.st2{fill:url(#SVGID_00000059294246914050903350000016837579686987579835_);}
	.st3{fill:url(#SVGID_00000170974868461502157640000006408018992986722747_);}
	.st4{fill:url(#SVGID_00000160877595458990319020000007523307272825327519_);}
	.st5{fill:url(#SVGID_00000084510888782048865760000017524134680715986350_);}
	.st6{fill:url(#SVGID_00000146502046310198795160000009644086108649086132_);}
	.st7{fill:url(#SVGID_00000090271024654421717020000016974292912747314344_);}
	.st8{fill:url(#SVGID_00000005246320608644345260000004297917419546421148_);}
	.st9{fill:url(#SVGID_00000013182532851794508580000008184580010229871527_);}
	.st10{fill:url(#SVGID_00000059988783913022054120000003516007097426791336_);}
	.st11{fill:url(#SVGID_00000042699996535569089670000004036885936063064449_);}
	.st12{fill:url(#SVGID_00000074435866749202193630000002404643378647033994_);}
	.st13{fill:url(#SVGID_00000016781593438071062570000005867909887776933804_);}
	.st14{fill:url(#SVGID_00000183223310712622391240000011446635787406033086_);}
	.st15{fill:url(#SVGID_00000069396451593761811460000000693151292046622879_);}
	.st16{fill:url(#SVGID_00000092447763735675269960000000313720409549448121_);}
	.st17{fill:url(#SVGID_00000084497070714004795380000015072309515277131649_);}
	.st18{fill:url(#SVGID_00000078006835753985822810000003066806727341765773_);}
	.st19{fill:url(#SVGID_00000098199183976222101800000017105014236582277037_);}
	.st20{fill:url(#SVGID_00000060029054874007525550000018238701496854087587_);}
	.st21{fill:url(#SVGID_00000039095895011630674120000016927624687585486504_);}
	.st22{fill:url(#SVGID_00000087411436043133221860000009522354724405638317_);}
	.st23{fill:url(#SVGID_00000116228325371006041180000001394239929488765846_);}
	.st24{fill:url(#SVGID_00000124119842157791713660000015080277387926621316_);}
	.st25{fill:url(#SVGID_00000141414415976307836650000015295134952146181284_);}
	.st26{fill:url(#SVGID_00000086651731565450046780000005329392597345647746_);}
	.st27{fill:url(#SVGID_00000166675481082224824510000002567046782433461438_);}
	.st28{fill:url(#SVGID_00000145748553317470533390000009014793860751998114_);}
	.st29{fill:url(#SVGID_00000017474599873152568900000001720519151623771036_);}
	.st30{fill:url(#SVGID_00000169521222807804583620000015513347733297165722_);}
	.st31{fill:url(#SVGID_00000066496678359538137800000009789838230419012003_);}
	.st32{fill:url(#SVGID_00000025441121648692265200000008776070167893289405_);}
	.st33{fill:url(#SVGID_00000045601747780698638190000013440489153333248154_);}
	.st34{fill:url(#SVGID_00000065761773283879707670000005965160504642649276_);}
	.st35{fill:url(#SVGID_00000142868898628198178050000010917977644043257733_);}
	.st36{fill:url(#SVGID_00000079450598858503098250000018052330329400741530_);}
	.st37{fill:url(#SVGID_00000067217040637671787930000001497652720303300519_);}
	.st38{fill:url(#SVGID_00000164513988974384974380000006978123360452493708_);}
	.st39{fill:url(#SVGID_00000182520858626593578540000001006237284213999765_);}
	.st40{fill:url(#SVGID_00000033347296509793843730000005746785783414905766_);}
	.st41{fill:url(#SVGID_00000050636556276665956700000013648711580109616539_);}
	.st42{fill:url(#SVGID_00000046339169590788017360000007920655113161890198_);}
	.st43{fill:url(#SVGID_00000078009199928094973810000015212710984407781296_);}
	.st44{fill:url(#SVGID_00000006675583469330906970000011666096103297948301_);}
	.st45{fill:url(#SVGID_00000001626019258685449440000008615430866154223268_);}
	.st46{fill:#0C509F;}
	.st47{fill:url(#SVGID_00000023976190116095454310000013220229331596025274_);}
	.st48{fill:url(#SVGID_00000000220399630481702720000015828716496247791010_);}
	.st49{fill:url(#SVGID_00000112608513087676694680000011174385374489369011_);}
	.st50{fill:url(#SVGID_00000088816746256082046410000016271154188252257680_);}
	.st51{fill:url(#SVGID_00000054233110850751983670000010577171665827106718_);}
	.st52{fill:url(#SVGID_00000143616126425034515600000016794724478941328559_);}
	.st53{fill:url(#SVGID_00000044866975261838433620000000023977099084672658_);}
	.st54{fill:url(#SVGID_00000136398499856904740040000001969315745765114809_);}
	.st55{fill:url(#SVGID_00000083063084860716267860000008685285510042586532_);}
	.st56{fill:url(#SVGID_00000146501480424578482120000016929198496299803807_);}
	.st57{fill:url(#SVGID_00000127747921121718901410000015194471876767453590_);}
	.st58{fill:url(#SVGID_00000042714703177671532310000009040672216234526102_);}
	.st59{fill:#0E5158;}
	.st60{fill:#4CBA7F;}
	.st61{fill:#272828;}
</style>
<g>
	<linearGradient id="SVGID_1_" gradientUnits="userSpaceOnUse" x1="75.1629" y1="303.6596" x2="532.837" y2="303.6596">
		<stop  offset="0" style="stop-color:#06373A"/>
		<stop  offset="0.22" style="stop-color:#134F47"/>
		<stop  offset="0.682" style="stop-color:#348C67"/>
		<stop  offset="1" style="stop-color:#4CBA7F"/>
	</linearGradient>
	<path class="st0" d="M532.7,223.71v-1.26c0.01-22.55,0.03-81.91,0-103.01c0-9.35-2.2-11.58-11.43-11.59c-26.8-0.01-53.59,0-80.39,0
		h-5.96v-6.52c0-18.69-0.09-37.39,0.07-56.07c0.04-5.01-0.82-9.35-5.11-12.44H80.79c-4.94,2.58-5.59,6.94-5.59,12.03
		c0.09,86.66,0.07,211.69,0.07,299.65c-0.2,0.89-0.05,2.07,0,3.13v1.42c0,0.57,0,1.14,0.01,1.7v0.04
		c-0.01,45.89-0.03,91.76,0,137.64c0,8.6,2.38,10.96,11.01,10.96c26.97,0.03,53.95,0.01,80.92,0.01h5.86c0,21.63-0.03,42.42,0,63.21
		c0.01,9.38,2.49,11.82,11.98,11.82c89.56,0,179.12-0.03,268.68,0.08c4.6,0,7.98-1.39,11.19-4.64
		c20.72-20.92,41.51-41.77,62.47-62.44c3.82-3.75,5.45-7.6,5.43-12.98c-0.13-88.8-0.09-177.62-0.11-266.42
		C533.01,226.81,532.7,225.1,532.7,223.71z M91.14,483.08v-6.77c0-42.13,0.01-84.27-0.04-126.4c0-1.29,0.11-2.74,0.01-4.07v-0.01
		c0.03-84.05,0.03-206.45,0.03-289.81v-6.97h327.6v366.66h-5.96c-16.4,0-32.79-0.01-49.19,0c-10.6,0-12.52,1.95-12.53,12.74
		c-0.01,16.4,0.01,32.79-0.01,49.19c0,1.84-0.19,3.7-0.28,5.43H91.14z M405.99,431.89c-12.97,12.73-25.89,25.44-38.75,38.08v-38.08
		H405.99z M465.04,544.42v-37.41h37.44C490.43,519.06,477.52,531.97,465.04,544.42z M516.87,226.46
		c-0.03,85.66-0.03,171.34-0.03,257v7.26h-6.32c-16.92,0-33.85-0.03-50.77,0.01c-8.09,0.01-10.74,2.68-10.77,10.8
		c-0.03,17.1,0,34.21,0,51.3c-0.01,1.84,0,3.68,0,5.29H189.32v-58.73h6.11c53.25,0,106.49-0.07,159.72,0.09
		c5.22,0.01,8.93-1.62,12.53-5.27c20.32-20.57,40.74-41.04,61.35-61.31c4.24-4.17,5.99-8.48,5.99-14.43
		c-0.15-95.9-0.11-191.81-0.11-287.71v-6.74h81.93v5.96c0,17.81-0.03,75.36,0.03,93.16C516.87,224.18,516.82,225.35,516.87,226.46z"
		/>
	
		<linearGradient id="SVGID_00000166644263489617267800000001743283335014568631_" gradientUnits="userSpaceOnUse" x1="132.9038" y1="208.5739" x2="366.2917" y2="208.5739">
		<stop  offset="0" style="stop-color:#06373A"/>
		<stop  offset="0.22" style="stop-color:#134F47"/>
		<stop  offset="0.682" style="stop-color:#348C67"/>
		<stop  offset="1" style="stop-color:#4CBA7F"/>
	</linearGradient>
	<path style="fill:url(#SVGID_00000166644263489617267800000001743283335014568631_);" d="M132.9,211.91
		c0.32-29.08,7.86-52.12,22.97-72.64c3.76-5.11,8.03-6.38,12.11-3.66c4.19,2.79,4.55,7.55,0.74,12.93
		c-21.1,29.82-25.61,61.96-13.05,96.24c14.62,39.9,55.48,66.59,97.91,64.37c46.74-2.45,83.81-33.5,94.44-79.09
		c13-55.81-27.3-113.7-84.15-121.08c-25.33-3.29-48.65,1.8-70.02,15.79c-0.44,0.29-0.87,0.59-1.33,0.87
		c-5.34,3.24-9.82,2.68-12.46-1.55c-2.49-3.99-1.33-8.63,3.71-11.61c7.25-4.29,14.52-8.8,22.3-11.92
		c67.62-27.15,143.1,13.58,157.85,84.95c13.41,64.89-31.68,129.08-97.18,138.34c-61.97,8.76-118.38-30.62-131.4-91.96
		C133.71,224.17,133.4,216.18,132.9,211.91z"/>
	
		<linearGradient id="SVGID_00000038401244641787685450000012748037093790613419_" gradientUnits="userSpaceOnUse" x1="181.3201" y1="210.2482" x2="317.7103" y2="210.2482">
		<stop  offset="0" style="stop-color:#06373A"/>
		<stop  offset="0.22" style="stop-color:#134F47"/>
		<stop  offset="0.682" style="stop-color:#348C67"/>
		<stop  offset="1" style="stop-color:#4CBA7F"/>
	</linearGradient>
	<path style="fill:url(#SVGID_00000038401244641787685450000012748037093790613419_);" d="M233.78,211.02
		c9.74-9.74,18.79-18.84,27.89-27.9c6.86-6.83,13.52-13.91,20.75-20.33c8.59-7.62,21.21-6.77,29.13,1.33
		c7.79,7.97,8.26,20.11,1.07,28.82c-1.12,1.35-2.35,2.62-3.6,3.87c-19.17,19.19-38.34,38.38-57.54,57.54
		c-11.55,11.53-23.35,11.48-35.01-0.11c-9.49-9.44-19.04-18.83-28.37-28.42c-6.28-6.45-8.51-14.21-5.33-22.83
		c3.06-8.32,9.28-13.12,18.13-14.14c6.93-0.8,12.83,1.67,17.69,6.52C223.56,200.34,228.4,205.47,233.78,211.02z M234.21,247.62
		c2.14-1.56,4.12-2.64,5.66-4.18c19.49-19.4,38.93-38.86,58.36-58.32c0.99-0.99,2.51-2.07,2.6-3.2c0.18-2.21,0.28-5.27-1.01-6.52
		c-1.29-1.25-4.4-1.23-6.53-0.82c-1.48,0.29-2.7,2.12-3.94,3.36c-15.84,15.82-31.66,31.67-47.51,47.48
		c-6.03,6.01-9.53,5.97-15.64-0.09c-6.01-5.96-11.99-11.95-17.96-17.94c-2.82-2.83-6.02-4.2-9.21-1c-3.25,3.27-1.57,6.39,1.22,9.16
		c9.49,9.46,18.92,18.98,28.46,28.38C230.13,245.34,232.06,246.21,234.21,247.62z"/>
	
		<linearGradient id="SVGID_00000063628158248427417280000005467700995896567174_" gradientUnits="userSpaceOnUse" x1="150.0463" y1="359.5357" x2="363.742" y2="359.5357">
		<stop  offset="0" style="stop-color:#06373A"/>
		<stop  offset="0.22" style="stop-color:#134F47"/>
		<stop  offset="0.682" style="stop-color:#348C67"/>
		<stop  offset="1" style="stop-color:#4CBA7F"/>
	</linearGradient>
	<path style="fill:url(#SVGID_00000063628158248427417280000005467700995896567174_);" d="M256.88,367.5c-31.55,0-63.1,0.01-94.65,0
		c-8.36,0-12.01-2.31-12.18-7.66c-0.18-5.54,3.81-8.26,12.23-8.26c63.1-0.01,126.2,0,189.3,0c0.71,0,1.41-0.02,2.11,0.01
		c6.58,0.23,10.22,3.25,10.04,8.3c-0.18,4.85-3.62,7.58-10.09,7.59C321.39,367.52,289.13,367.49,256.88,367.5z"/>
	
		<linearGradient id="SVGID_00000022522599971604327130000007530316565677344433_" gradientUnits="userSpaceOnUse" x1="150.0456" y1="397.057" x2="302.1191" y2="397.057">
		<stop  offset="0" style="stop-color:#06373A"/>
		<stop  offset="0.22" style="stop-color:#134F47"/>
		<stop  offset="0.682" style="stop-color:#348C67"/>
		<stop  offset="1" style="stop-color:#4CBA7F"/>
	</linearGradient>
	<path style="fill:url(#SVGID_00000022522599971604327130000007530316565677344433_);" d="M226.55,389.12c21.3,0,42.61,0,63.91,0.01
		c1.76,0,3.55-0.08,5.27,0.23c3.69,0.66,5.95,2.91,6.33,6.72c0.41,4-1.25,6.97-5.12,8.15c-2.14,0.65-4.5,0.73-6.77,0.74
		c-42.61,0.04-85.21,0.03-127.82,0.03c-8.44,0-12.41-2.64-12.3-8.16c0.1-5.36,3.75-7.71,12.07-7.71
		C183.59,389.12,205.07,389.12,226.55,389.12z"/>
</g>
</svg>
