<?xml version="1.0" encoding="utf-8"?>
<!-- Generator: Adobe Illustrator 26.4.1, SVG Export Plug-In . SVG Version: 6.00 Build 0)  -->
<svg version="1.1" id="Layer_1" xmlns="http://www.w3.org/2000/svg" xmlns:xlink="http://www.w3.org/1999/xlink" x="0px" y="0px"
	 viewBox="0 0 608 607.32" style="enable-background:new 0 0 608 607.32;" xml:space="preserve">
<style type="text/css">
	.st0{fill:url(#SVGID_1_);}
	.st1{fill:url(#SVGID_00000034788498962089533940000004173800628653608857_);}
	.st2{fill:url(#SVGID_00000078002538680839388870000013302228967724429728_);}
	.st3{fill:url(#SVGID_00000169539238206125631350000000431406894040275870_);}
	.st4{fill:url(#SVGID_00000021806370218088409730000013233983957160013219_);}
	.st5{fill:url(#SVGID_00000150786947963899704240000000455069081633449870_);}
	.st6{fill:url(#SVGID_00000147910080566349679900000012579882807891218589_);}
	.st7{fill:url(#SVGID_00000029009062182277185360000013933781494570098865_);}
	.st8{fill:url(#SVGID_00000106830354039585340210000014466339361152519344_);}
	.st9{fill:url(#SVGID_00000122692503176854184870000015080212735498147764_);}
	.st10{fill:url(#SVGID_00000029745436281410575590000016126715585057119110_);}
	.st11{fill:url(#SVGID_00000036234719264972812890000007911876665597326247_);}
	.st12{fill:url(#SVGID_00000124145637348672866300000003495364320973782922_);}
	.st13{fill:url(#SVGID_00000050645333302086444010000009383756120821977730_);}
	.st14{fill:url(#SVGID_00000178923817788812313140000003428204107282957463_);}
	.st15{fill:url(#SVGID_00000119823230283920877280000002070661682396950966_);}
	.st16{fill:url(#SVGID_00000119112902373377797120000016305704395327648914_);}
	.st17{fill:url(#SVGID_00000094615228214829100030000007504401523128648876_);}
	.st18{fill:url(#SVGID_00000009569572859182121400000014071507165846502554_);}
	.st19{fill:url(#SVGID_00000180362648117760991380000018399717163027922060_);}
	.st20{fill:url(#SVGID_00000044161716488505181100000010484402860587607444_);}
	.st21{fill:url(#SVGID_00000056416236060549932670000006721683673061441199_);}
	.st22{fill:url(#SVGID_00000036245752412451493720000016480851224079117235_);}
	.st23{fill:url(#SVGID_00000006677164717106031560000016419192451567655311_);}
	.st24{fill:url(#SVGID_00000163060118558980270910000012308641654522584461_);}
	.st25{fill:url(#SVGID_00000090276709631097558000000011991334928995807892_);}
	.st26{fill:url(#SVGID_00000179640554266312232290000009884321392277763515_);}
	.st27{fill:url(#SVGID_00000146459071046429482270000009328750544725969309_);}
	.st28{fill:url(#SVGID_00000055687694522796406870000015632643125537428096_);}
	.st29{fill:url(#SVGID_00000083811037574029785560000016005478799489125299_);}
	.st30{fill:url(#SVGID_00000173877273503833637530000002536865618587257244_);}
	.st31{fill:url(#SVGID_00000141419486886757589520000000433072932369988266_);}
	.st32{fill:url(#SVGID_00000040533242643497158050000011028053884360704948_);}
	.st33{fill:url(#SVGID_00000098180291561988244760000008734384928553769371_);}
	.st34{fill:url(#SVGID_00000015315651581588957790000006921974772523727519_);}
	.st35{fill:url(#SVGID_00000088115215628811544290000016474350429477665412_);}
	.st36{fill:url(#SVGID_00000057828711563863202490000011231031159072926604_);}
	.st37{fill:url(#SVGID_00000016048394006907435060000010699553829629614989_);}
	.st38{fill:url(#SVGID_00000103943515792361850220000010828200399192509344_);}
	.st39{fill:url(#SVGID_00000173127322600792607270000017513946492953193088_);}
	.st40{fill:url(#SVGID_00000096053325989388018060000005133651098663320964_);}
	.st41{fill:url(#SVGID_00000157278429540430771720000015951343226123046275_);}
	.st42{fill:url(#SVGID_00000101086735594765343600000017686507663611898531_);}
	.st43{fill:url(#SVGID_00000165197565027538961920000006429021761530497190_);}
	.st44{fill:url(#SVGID_00000102502865675942939180000015487550739765368765_);}
	.st45{fill:url(#SVGID_00000054226172698891198530000001150115433086306971_);}
	.st46{fill:#0C509F;}
	.st47{fill:url(#SVGID_00000054953953192648892330000009792508549156719027_);}
	.st48{fill:url(#SVGID_00000116193144422608391470000010458066850669825686_);}
	.st49{fill:url(#SVGID_00000071538729175723807160000006401680648186215587_);}
	.st50{fill:url(#SVGID_00000109031812560744843530000012214546615934075306_);}
	.st51{fill:url(#SVGID_00000019648436221124677710000004185763856887280295_);}
	.st52{fill:url(#SVGID_00000122695435575970137200000011070460050998127249_);}
	.st53{fill:url(#SVGID_00000162351285125911550840000011369319377189852803_);}
	.st54{fill:url(#SVGID_00000005965779261686167040000003431105542107881901_);}
	.st55{fill:url(#SVGID_00000072987535419339653630000012531755257476259752_);}
	.st56{fill:url(#SVGID_00000156581018219729021590000009103244813627272355_);}
	.st57{fill:url(#SVGID_00000103267038473037008950000007737326158323001531_);}
	.st58{fill:url(#SVGID_00000114071772882443721460000001011763643313672622_);}
	.st59{fill:#0E5158;}
	.st60{fill:#4CBA7F;}
	.st61{fill:#272828;}
</style>
<g>
	<linearGradient id="SVGID_1_" gradientUnits="userSpaceOnUse" x1="71.9648" y1="303.6596" x2="536.0352" y2="303.6596">
		<stop  offset="0" style="stop-color:#06373A"/>
		<stop  offset="0.22" style="stop-color:#134F47"/>
		<stop  offset="0.682" style="stop-color:#348C67"/>
		<stop  offset="1" style="stop-color:#4CBA7F"/>
	</linearGradient>
	<path class="st0" d="M95.71,581.09c-2.12-0.9-4.3-1.69-6.35-2.72c-10.18-5.13-16.22-13.25-16.57-24.76
		c-0.35-11.72-0.51-23.49,0.08-35.19c0.31-6.09,2.43-12.09,3.83-18.58c-6.42-22.52-6.37-45.77,0.51-70.63
		c-7.13-13.44-7.11-53.89,1.14-68.02c-5.17-5.81-5.73-13.16-5.74-20.66c-0.01-10.11-0.11-20.23,0.05-30.33
		c0.28-17.63,12.12-29.43,29.87-29.49c37.81-0.12,75.63-0.04,113.44-0.04c2.13,0,4.26,0,6.7,0c0-42.6,0-84.59,0-127.32
		c-9.66,0-19.2-0.1-28.73,0.03c-6.71,0.09-13.48,0.25-16.32-7.48c-2.79-7.6,2.25-11.98,7.27-16.47
		c36.63-32.79,73.17-65.68,109.76-98.52c6.91-6.21,12.07-6.24,19.03,0c34.34,30.75,68.67,61.5,102.93,92.33
		c4.15,3.74,8.12,7.75,11.69,12.04c6.29,7.53,2.73,16.81-7.13,17.71c-9.15,0.84-18.42,0.41-27.63,0.53c-2.49,0.03-4.99,0-7.85,0
		c0,58.42,0,116.47,0,175.09c4.12-0.4,8.15-0.88,12.19-1.16c66.6-4.52,122.67,38.06,135.78,103.11
		c13.75,68.22-33.92,137.08-102.79,148.52c-3.53,0.59-7.03,1.34-10.55,2.01c-7.96,0-15.92,0-23.89,0c-0.82-0.3-1.63-0.78-2.47-0.87
		c-15.64-1.67-30.47-6.16-44.28-13.59c-7.54-4.05-14.64-8.94-22.26-13.65c-0.71,7.82-3.02,14.94-9.02,19.77
		c-4.24,3.41-9.46,5.6-14.24,8.34C234.68,581.09,165.19,581.09,95.71,581.09z M408.46,350.08
		c-58.72,0.37-104.71,46.88-104.28,105.44c0.41,56.38,47.67,102.65,104.71,102.53c57.23-0.12,104.17-47.46,103.71-104.57
		C512.14,396.07,465.45,349.72,408.46,350.08z M246.35,280.67c2.87,0,4.83,0,6.79,0c14.84,0,29.68-0.12,44.51,0.04
		c17.4,0.18,29.48,11.93,29.48,29.28c0.01,15.92,2.17,31.96-1.98,46.83c10.3-6.16,20.75-12.88,31.69-18.7
		c4.01-2.13,5.31-4.22,5.23-8.51c-0.25-13.54-0.09-27.09-0.09-40.63c0-48.04-0.02-96.07,0.01-144.11
		c0.01-10.3,4.24-14.49,14.43-14.53c3.97-0.02,7.94,0,13.36,0c-29.37-26.37-57.42-51.55-85.61-76.86
		c-28.52,25.62-56.48,50.76-85.53,76.86c5.06,0,8.46,0,11.86,0c12.1,0.01,15.85,3.73,15.85,15.84c0.01,42.44,0,84.88,0,127.32
		C246.35,275.62,246.35,277.77,246.35,280.67z M201.56,303.69c0-0.01,0-0.03,0-0.04c-30.01,0-60.02-0.04-90.02,0.04
		c-3.96,0.01-8.01,0.22-11.82,1.15c-1.6,0.39-3.79,2.86-3.84,4.44c-0.34,10.81-0.31,21.65-0.13,32.47c0.11,6.93,1.6,8.24,8.43,8.25
		c59.29,0.08,118.59,0.16,177.88,0.15c5.77,0,11.55-0.58,17.31-1.01c3.05-0.23,4.9-1.49,4.84-5.11c-0.17-10.64,0.06-21.29-0.1-31.93
		c-0.11-7.19-1.54-8.4-8.74-8.4C264.11,303.69,232.84,303.69,201.56,303.69z M197.24,511.74c-31.11,0-62.22-0.01-93.33,0.01
		c-6.53,0-7.95,1.27-8.15,7.87c-0.2,6.85-0.12,13.72-0.1,20.58c0.07,17.44,0.08,17.83,17.48,17.88
		c61.13,0.16,122.27-0.01,183.41,0.05c4.74,0,7.34-1.99,7.42-6.54c0.24-12.43,2.56-25.19-6.63-36.09c-2.04-2.42-3.44-3.84-6.76-3.83
		C259.46,511.8,228.35,511.74,197.24,511.74z M198.27,373c0,0.01,0,0.03,0,0.04c-31.29,0-62.58-0.01-93.88,0
		c-7.2,0-8.55,1.16-8.66,8.46c-0.16,10.47,0.1,20.94-0.1,31.41c-0.07,3.78,1.68,5.28,5.02,5.57c4.32,0.38,8.65,0.92,12.98,0.92
		c56.07,0.03,112.14-0.04,168.22,0.01c3.02,0,4.19-1.02,5.35-3.87c3.57-8.83,7.65-17.46,11.68-26.09c1.37-2.93,3.47-5.53,4.71-8.5
		c1.52-3.64,0.56-6.47-3.92-6.92c-4.13-0.42-8.28-0.97-12.41-0.98C257.6,372.96,227.94,373,198.27,373z M280.12,442.52
		c-0.23-0.02-0.94-0.12-1.66-0.12c-58.41-0.01-116.82,0.04-175.23-0.09c-5.6-0.01-7.46,2.68-7.49,7.53
		c-0.07,10.65,0.14,21.3-0.13,31.94c-0.11,4.29,1.78,5.9,5.64,6.12c5.95,0.34,11.91,0.94,17.86,0.95
		c49.55,0.04,99.1-0.03,148.65-0.07c5.87,0,11.73,0,16.68,0C282.98,473.04,281.58,458.06,280.12,442.52z"/>
	
		<linearGradient id="SVGID_00000113331632056234294030000016664164381922188181_" gradientUnits="userSpaceOnUse" x1="362.0302" y1="453.8836" x2="454.7595" y2="453.8836">
		<stop  offset="0" style="stop-color:#06373A"/>
		<stop  offset="0.22" style="stop-color:#134F47"/>
		<stop  offset="0.682" style="stop-color:#348C67"/>
		<stop  offset="1" style="stop-color:#4CBA7F"/>
	</linearGradient>
	<path style="fill:url(#SVGID_00000113331632056234294030000016664164381922188181_);" d="M396.74,395.69
		c0-3.66-0.15-7.08,0.03-10.47c0.37-7.2,4.92-11.97,11.34-12.13c6.64-0.17,11.49,4.68,11.9,12.12c0.19,3.38,0.03,6.78,0.03,10.88
		c7.69,0,14.87-0.17,22.04,0.04c9.08,0.27,14.51,7.31,11.97,15.16c-1.67,5.17-5.95,8.01-12.75,8.05
		c-14.47,0.09-28.95-0.03-43.42,0.07c-6.81,0.05-11.3,3.53-12.3,9.13c-1.32,7.41,3.65,13.56,11.47,13.8
		c7.05,0.21,14.11,0.04,21.17,0.07c20.33,0.09,35.24,13.65,36.48,33.16c1.16,18.25-12.65,33.65-32.39,36.13
		c-0.52,0.07-1.04,0.19-2.25,0.41c0,3.28,0.11,6.66-0.02,10.04c-0.31,7.84-4.98,12.69-11.94,12.55c-6.65-0.14-11.07-4.99-11.34-12.6
		c-0.12-3.22-0.02-6.45-0.02-10.37c-7.93,0-15.47,0.13-23.01-0.04c-5.75-0.13-9.76-3.41-11.14-8.57
		c-1.31-4.87,0.56-10.34,5.02-12.58c2.46-1.23,5.52-1.7,8.32-1.74c14.11-0.17,28.23-0.01,42.34-0.11c7.12-0.05,11.87-3.58,12.94-9.2
		c1.44-7.59-3.55-13.69-11.87-13.99c-7.95-0.28-15.93,0.08-23.88-0.19c-17.58-0.61-31.03-13.38-33.18-31.23
		c-1.95-16.13,8.94-31.99,25.17-36.54C390.19,396.75,393.08,396.4,396.74,395.69z"/>
</g>
</svg>
