<svg id="instagram" xmlns="http://www.w3.org/2000/svg" width="28.708" height="28.708" viewBox="0 0 28.708 28.708">
  <g id="Group_1198" data-name="Group 1198">
    <g id="Group_1197" data-name="Group 1197">
      <path id="Path_1169" data-name="Path 1169" d="M19.737,0H8.971A8.972,8.972,0,0,0,0,8.971V19.737a8.972,8.972,0,0,0,8.971,8.971H19.737a8.972,8.972,0,0,0,8.971-8.971V8.971A8.972,8.972,0,0,0,19.737,0Zm6.28,19.737a6.287,6.287,0,0,1-6.28,6.28H8.971a6.287,6.287,0,0,1-6.28-6.28V8.971a6.287,6.287,0,0,1,6.28-6.28H19.737a6.287,6.287,0,0,1,6.28,6.28Z" fill="#01695e"/>
    </g>
  </g>
  <g id="Group_1200" data-name="Group 1200" transform="translate(7.177 7.177)">
    <g id="Group_1199" data-name="Group 1199">
      <path id="Path_1170" data-name="Path 1170" d="M135.177,128a7.177,7.177,0,1,0,7.177,7.177A7.177,7.177,0,0,0,135.177,128Zm0,11.663a4.486,4.486,0,1,1,4.486-4.486A4.492,4.492,0,0,1,135.177,139.663Z" transform="translate(-128 -128)" fill="#01695e"/>
    </g>
  </g>
  <g id="Group_1202" data-name="Group 1202" transform="translate(21.113 5.682)">
    <g id="Group_1201" data-name="Group 1201">
      <circle id="Ellipse_163" data-name="Ellipse 163" cx="0.956" cy="0.956" r="0.956" fill="#01695e"/>
    </g>
  </g>
</svg>
