<?xml version="1.0" encoding="UTF-8"?><svg id="Layer_1" xmlns="http://www.w3.org/2000/svg" viewBox="0 0 184.7 190.85"><defs><style>.cls-1{fill:#01695e;stroke:#01695e;stroke-miterlimit:10;}.cls-2{fill:#eef8f7;}</style></defs><circle class="cls-2" cx="92.35" cy="95.43" r="89.36"/><g><path class="cls-1" d="M163.28,108.37c-.18,2.85-.37,5.69-.55,8.54-.27,4.33-.58,8.63-1.68,12.87-2.42,9.34-7.93,15.53-17.66,17.2-3.85,.66-7.8,.8-11.71,.94-12.77,.43-25.55,1.13-38.32,1.03-15.77-.13-31.54-.9-47.3-1.56-4.72-.2-9.32-1.23-13.39-3.9-4.97-3.25-7.55-8.04-8.98-13.63-1.76-6.91-1.78-13.99-2.01-21.03-.44-13.93-.47-27.88,.91-41.77,.56-5.58,1.98-11.02,5.54-15.56,3.51-4.47,8.17-7.32,13.81-7.86,7.38-.72,14.81-1.22,22.22-1.36,14.9-.29,29.8-.47,44.7-.31,10.56,.11,21.11,.73,31.66,1.36,6.8,.4,12.56,3.2,16.7,8.78,2.44,3.29,3.76,7.13,4.29,11.12,.71,5.29,1,10.64,1.46,15.96,.1,1.14,.19,2.29,.28,3.43v25.76ZM95.46,49.78c-13.06,.31-22.98,.49-32.89,.82-6.04,.2-12.08,.5-18.1,1.04-5.8,.52-9.97,3.37-11.96,9.14-1.42,4.12-1.88,8.35-2.12,12.63-.84,14.67-.9,29.34,.04,44,.24,3.75,.86,7.5,1.61,11.19,.49,2.42,1.51,4.72,3.41,6.52,2.47,2.35,5.51,3.36,8.76,3.67,4.86,.47,9.74,.88,14.62,1.08,22.32,.89,44.65,1.1,66.97,.05,5.34-.25,10.7-.49,16.01-1.12,4.88-.58,8.33-3.28,10.16-8.04,1.73-4.52,2.16-9.21,2.44-13.96,.73-12.59,.79-25.19,.24-37.78-.25-5.65-.21-11.36-1.86-16.87-.87-2.9-2-5.6-4.55-7.55-3.02-2.3-6.51-3.03-10.13-3.18-15.26-.63-30.52-1.17-42.65-1.62Z"/><path class="cls-1" d="M74.38,93.92c0-5.45-.01-10.89,0-16.34,.01-5.34,4.44-7.96,9.14-5.39,10.03,5.47,20.06,10.97,30.07,16.48,3.84,2.11,4.76,6.24,2.04,9.22-.58,.63-1.34,1.14-2.1,1.55-10.02,5.41-20.04,10.8-30.08,16.17-4.72,2.53-9.07-.12-9.08-5.49-.01-5.4,0-10.8,0-16.2Zm8.34,12.66l23.38-12.57c-7.88-4.31-15.56-8.51-23.38-12.79v25.36Z"/></g></svg>